<?xml version="1.0" encoding="UTF-8" standalone="no"?>
<!-- Created with Inkscape (http://www.inkscape.org/) -->

<svg
   xmlns:dc="http://purl.org/dc/elements/1.1/"
   xmlns:cc="http://creativecommons.org/ns#"
   xmlns:rdf="http://www.w3.org/1999/02/22-rdf-syntax-ns#"
   xmlns:svg="http://www.w3.org/2000/svg"
   xmlns="http://www.w3.org/2000/svg"
   xmlns:xlink="http://www.w3.org/1999/xlink"
   xmlns:sodipodi="http://sodipodi.sourceforge.net/DTD/sodipodi-0.dtd"
   xmlns:inkscape="http://www.inkscape.org/namespaces/inkscape"
   width="210mm"
   height="297mm"
   viewBox="0 0 744.09448819 1052.3622047"
   id="svg2"
   version="1.1"
   inkscape:version="0.91 r13725"
   sodipodi:docname="agile-warsaw-logo.svg"
   inkscape:export-filename="/Users/lukasz/projects/Agile/AgileWarsaw/github/grafika/agile-warsaw-logo-outlined.png"
   inkscape:export-xdpi="78.029999"
   inkscape:export-ydpi="78.029999">
  <defs
     id="defs4">
    <marker
       inkscape:stockid="Arrow1Lend"
       orient="auto"
       refY="0.0"
       refX="0.0"
       id="Arrow1Lend"
       style="overflow:visible;"
       inkscape:isstock="true">
      <path
         id="path4615"
         d="M 0.0,0.0 L 5.0,-5.0 L -12.5,0.0 L 5.0,5.0 L 0.0,0.0 z "
         style="fill-rule:evenodd;stroke:#000000;stroke-width:1.0pt;"
         transform="scale(0.8) rotate(180) translate(12.5,0)" />
    </marker>
    <marker
       inkscape:stockid="Arrow1Lstart"
       orient="auto"
       refY="0.0"
       refX="0.0"
       id="marker4876"
       style="overflow:visible"
       inkscape:isstock="true">
      <path
         id="path4878"
         d="M 0.0,0.0 L 5.0,-5.0 L -12.5,0.0 L 5.0,5.0 L 0.0,0.0 z "
         style="fill-rule:evenodd;stroke:#000000;stroke-width:1.0pt"
         transform="scale(0.8) translate(12.5,0)" />
    </marker>
    <marker
       inkscape:stockid="Arrow1Lstart"
       orient="auto"
       refY="0.0"
       refX="0.0"
       id="Arrow1Lstart"
       style="overflow:visible"
       inkscape:isstock="true">
      <path
         id="path4612"
         d="M 0.0,0.0 L 5.0,-5.0 L -12.5,0.0 L 5.0,5.0 L 0.0,0.0 z "
         style="fill-rule:evenodd;stroke:#000000;stroke-width:1.0pt"
         transform="scale(0.8) translate(12.5,0)" />
    </marker>
    <linearGradient
       inkscape:collect="always"
       id="linearGradient4596">
      <stop
         style="stop-color:#666666;stop-opacity:0.375"
         offset="0"
         id="stop4598" />
      <stop
         style="stop-color:#666666;stop-opacity:0;"
         offset="1"
         id="stop4600" />
    </linearGradient>
    <clipPath
       id="clipPath4175"
       clipPathUnits="userSpaceOnUse">
      <path
         inkscape:connector-curvature="0"
         id="path4177"
         d="m 0,1000 1000,0 L 1000,0 0,0 0,1000 Z" />
    </clipPath>
    <clipPath
       id="clipPath4187"
       clipPathUnits="userSpaceOnUse">
      <path
         inkscape:connector-curvature="0"
         id="path4189"
         d="m 0,1000 1000,0 L 1000,0 0,0 0,1000 Z" />
    </clipPath>
    <clipPath
       id="clipPath4199"
       clipPathUnits="userSpaceOnUse">
      <path
         inkscape:connector-curvature="0"
         id="path4201"
         d="m 0,1000 1000,0 L 1000,0 0,0 0,1000 Z" />
    </clipPath>
    <clipPath
       id="clipPath4211"
       clipPathUnits="userSpaceOnUse">
      <path
         inkscape:connector-curvature="0"
         id="path4213"
         d="m 0,1000 1000,0 L 1000,0 0,0 0,1000 Z" />
    </clipPath>
    <radialGradient
       inkscape:collect="always"
       xlink:href="#linearGradient4596"
       id="radialGradient4606"
       cx="-459.51309"
       cy="535.65649"
       fx="-459.51309"
       fy="535.65649"
       r="616.71429"
       gradientTransform="matrix(1.8651182,0.01106953,-0.00369594,0.62273222,386.1688,189.59251)"
       gradientUnits="userSpaceOnUse" />
  </defs>
  <sodipodi:namedview
     id="base"
     pagecolor="#ffffff"
     bordercolor="#666666"
     borderopacity="1.0"
     inkscape:pageopacity="0.0"
     inkscape:pageshadow="2"
     inkscape:zoom="0.35"
     inkscape:cx="-214.54781"
     inkscape:cy="520"
     inkscape:document-units="px"
     inkscape:current-layer="layer1"
     showgrid="false"
     inkscape:window-width="1419"
     inkscape:window-height="1351"
     inkscape:window-x="438"
     inkscape:window-y="0"
     inkscape:window-maximized="0" />
  <metadata
     id="metadata7">
    <rdf:RDF>
      <cc:Work
         rdf:about="">
        <dc:format>image/svg+xml</dc:format>
        <dc:type
           rdf:resource="http://purl.org/dc/dcmitype/StillImage" />
        <dc:title></dc:title>
      </cc:Work>
    </rdf:RDF>
  </metadata>
  <g
     inkscape:label="Layer 1"
     inkscape:groupmode="layer"
     id="layer1">
    <rect
       style="opacity:1;fill:url(#radialGradient4606);fill-opacity:1;stroke:none;stroke-width:2;stroke-linecap:round;stroke-linejoin:miter;stroke-miterlimit:4;stroke-dasharray:none;stroke-dashoffset:0;stroke-opacity:1"
       id="rect4594"
       width="1231.4286"
       height="708.57141"
       x="-1060"
       y="135.21935"
       inkscape:export-xdpi="78.029999"
       inkscape:export-ydpi="78.029999" />
    <g
       id="g4495"
       transform="translate(865.00003,573.08598)"
       inkscape:export-xdpi="78.029999"
       inkscape:export-ydpi="78.029999">
      <path
         inkscape:export-ydpi="78.029999"
         inkscape:export-xdpi="78.029999"
         d="m -171.46628,506.15777 c 2.18625,-9.2575 3.63125,-15.38375 -0.715,-27.9625 1.56875,0.79125 2.7725,1.73875 2.8025,2.6275 0.0863,2.77875 0.26875,4.48375 0.625,5.86875 1.27375,4.985 5.21,6.7525 8.18625,6.7525 2.4,0 4.23,-1.01375 5.55875,-1.75125 0.77,-0.4325 1.49875,-0.8325 2.28625,-1.08375 0,0 0.12,-0.025 0.3925,-0.025 1.515,0 3.595,0.63125 5.48125,1.43 -7.80625,1.90875 -16.5975,9.43 -19.86,17.59 -0.56,1.4 -1.16625,2.665 -1.7525,3.8825 -2.1275,4.425 -6.07625,12.6675 3.0625,19.26625 0.685,0.49875 1.8575,2.18 2.04375,4.5525 0.14125,1.71125 -0.21125,4.2625 -2.66375,6.71 -4.91875,4.92375 -4.27125,9.51 -3.44375,11.80625 2.38875,6.63875 10.72375,7.98625 14.59875,8.40375 1.35875,0.645 5.52375,2.88125 7.40375,6.675 l 15.54,0 c -0.565,-3.3475 -1.85625,-6.56 -3.91125,-9.54125 -4.5875,-6.67 -12.21375,-10.87875 -15.84,-11.71 2.43,-4.09375 3.535,-8.7425 3.15375,-13.53125 -0.475,-5.89 -3.15375,-11.29625 -7.23625,-14.70125 0.22375,-0.4925 0.48625,-1.03 0.70875,-1.48625 0.62,-1.30875 1.40375,-2.9375 2.145,-4.79875 1.87125,-4.66 7.69125,-8.47125 9.6625,-8.69375 5.95375,0.305 11.68,-3.18 14.08125,-8.47375 2.045,-4.5 1.29625,-9.4425 -1.99875,-13.21 -3.66375,-4.18375 -13.71375,-9.055 -21.175,-9.055 -1.00875,0 -1.9825,0.085 -2.90625,0.25 -3.41125,-10.945 -17.7375,-14.48625 -23.29375,-14.48625 -3.3,0 -6.23875,1.4675 -8.06125,4.035 -3.39125,4.76125 -1.8425,11.23125 0.3325,17.52 2.95375,8.53375 2.2925,11.3475 0.3175,19.7225 l -0.12125,0.5175 c -0.74,3.14375 -9.06625,9.13 -16.27875,10.6775 0.365,-0.71625 0.80375,-1.4675 1.305,-2.15125 6.5275,-8.90375 2.77375,-15.40375 -1.23,-20.0775 -1.21125,-1.41375 -1.23125,-1.70125 -0.8075,-2.8825 0.4475,-0.71 1.83875,-2.35375 2.865,-3.56625 3.42,-4.07125 7.685,-9.12 9.37,-14.66125 3.37,-11.06125 -5.755,-27.02625 -7.1175,-29.31625 0.0162,-0.045 0.0325,-0.0875 0.0462,-0.13 0.41875,-1.2325 1.06,-3.0975 1.22125,-5.61875 0.20625,-3.03375 0.20125,-5.32875 -0.56375,-7.41375 1.40375,-1.64375 2.655,-3.77875 4.045,-6.285 0.19875,-0.36 0.37625,-0.69625 0.535,-0.9775 2.7975,-4.895 1.27,-11.0525 -3.685,-15.32375 -0.17,-0.7275 -0.36,-1.91 -0.505,-2.835 -0.2825,-1.7325 -0.62125,-3.8875 -1.22625,-6.1725 -1.83,-6.95875 -8.86125,-11.28625 -18.34625,-11.28625 -1.31125,0 -2.605,0.0888 -3.7425,0.26125 -6.4675,1 -9.22125,5.385 -10.54625,7.49625 -0.17875,0.2725 -0.34375,0.5525 -0.525,0.805 -1.685,2.35875 -4.57,7.33875 -5.00625,14.1825 -0.26375,4.325 -0.0162,10.3225 4.57625,14.80375 -1.27875,0.1375 -2.705,0.2275 -4.1375,0.2275 -1.6175,0 -2.61625,-0.11875 -3.17875,-0.2275 -1.5775,-1.66625 -2.8325,-3.265 -3.73125,-4.75625 -0.7025,-1.47875 -1.4,-3.57 -1.1,-5.6225 1.68,-4.485 15.71625,-27.265 18.2175,-30.3225 1.26625,-1.42875 2.03625,-3.01 2.40375,-4.6475 l 71.1825,0 c 0.195,0 0.38875,-0.007 0.5825,-0.0225 6.215,-0.4875 7.68125,-5.3325 7.5775,-7.82375 -0.0125,-0.28125 -0.35625,-6.94375 -8.01625,-7.22875 -0.82625,-0.0325 -2.065,-0.0513 -3.775,-0.0513 -2.83625,0 -6.88,0.0438 -11.60125,0.0863 -6.385,0.0563 -14.32625,0.12875 -21.955,0.12875 -19.205,0 -26.12875,-0.47625 -28.62,-0.8175 -3.24875,-2.785 -7.9125,-4.4475 -12.75125,-4.4475 -1.32625,0 -2.65125,0.1225 -3.94125,0.3625 -4.82125,0.89875 -8.53875,3.44125 -10.4575,7.155 -2.11,4.0675 -1.91125,8.89375 0.58125,14.345 1.21,2.63125 -1.45,6.35 -1.445,6.35 -0.0775,0.09 -0.14875,0.18875 -0.22375,0.2875 -0.2025,0.29375 -5.27,7.38625 -11.36,20.475 -1.87875,4.0425 -3.11875,10.58875 1.58875,18.83875 1.9625,3.88125 4.795,7.41875 7.805,9.72875 0.0125,0.0125 0.0288,0.025 0.0463,0.0362 1.4725,1.4275 2.935,2.705 4.24875,3.79 -1.885,3.54 -2.50125,6.73625 -2.5275,9.3775 -4.2475,2.87875 -9.795,7.815 -11.37375,14.645 -2.45,10.6425 0.69625,17.6375 6.57125,25.47125 3.01375,4.01625 -3.07375,13.5675 -8.70625,20.87 -9.5825,12.41875 -5.69875,23.64875 -3.12625,31.0725 0.55125,1.605 1.085,3.1375 1.36875,4.37375 -0.80125,0.4725 -1.97,1.03125 -2.83125,1.44625 -0.87375,0.41875 -1.73875,0.83625 -2.55375,1.26875 -3.42625,1.805 -6.55375,2.75875 -9.05375,2.75875 -3.9225,0 -5.51875,-2.4175 -5.95875,-3.27625 l -0.03,-48.00875 c 0,-10.6625 -8.67375,-19.3425 -19.33875,-19.3425 l -5.4425,0 c -10.66,0 -19.3375,8.68 -19.3375,19.32375 l -0.0375,19.97125 c -1.235,0.285 -2.94375,0.5625 -4.86875,0.6925 l -0.03,-57.97125 c 0,-10.665 -8.67375,-19.345 -19.34375,-19.345 l -28.45,0 c -10.6675,0 -19.3375,8.68 -19.3375,19.345 l 0,54.72375 c -0.33125,2.1775 -2.17125,3.79 -4.3875,3.79 l -8.35625,0 c -2.21125,0 -4.05,-1.615 -4.375,-3.79 l 0,-114.45125 c 0,-10.6625 -8.68,-19.33375 -19.34375,-19.33375 l -6.25375,0 c -2.46,0 -4.4625,-2.005 -4.4625,-4.46625 l 0,-33.78875 c 0,-4.12375 -2.87,-10.465 -5.39125,-13.29125 l 0.0425,-0.0437 0.12375,0.14125 c -0.97125,-1.12375 -2.79875,-3.8425 -3.28375,-5.08125 l 0,-3.2925 c 0,-0.205 -0.006,-0.40375 -0.025,-0.5975 l 0,-32.2275 c 0,-9.035 -4.11875,-13.74125 -7.69875,-16.1225 -0.5225,-0.41 -1.27,-1.185 -1.4425,-2.3175 l 0,-69.06625 c 0,-9.17125 -13.74375,-11.62875 -15.595,-11.62875 -1.8525,0 -18.57375,2.4575 -18.57375,11.62875 l 0,69.16375 c -0.19,1.05875 -0.895,1.79125 -1.395,2.1925 -3.61,2.38625 -7.745,7.09625 -7.745,16.15 l 0,36.51625 c -0.56375,1.14125 -2.13125,3.33 -3.0475,4.39625 -0.1425,0.1375 -0.28125,0.29 -0.40875,0.4375 -3.27375,3.58375 -5.0725,8.19375 -5.0725,13.0425 l 0,33.78875 c 0,0.745 -0.17,4.46625 -3.47375,4.46625 l -8.3675,0 c -12.0825,0 -16.3675,10.4125 -16.3675,19.26375 l -0.99125,100.00125 0,13.8425 c 0,2.46125 -2.0025,4.4675 -4.46,4.4675 l -16.9475,0 c -0.14,0 -0.2825,0.005 -0.4225,0.009 -1.3775,-0.27125 -3.85875,-2.0975 -4.01375,-3.17 -0.009,-1.16375 -0.02,-6.95625 -0.0275,-10.56625 0,-10.6575 -8.67625,-19.335 -19.3425,-19.335 l -18.85375,0 c -10.665,0 -19.3425,8.6775 -19.3425,19.33 0,0 -0.0738,60.66125 -0.0475,60.89875 l -1.90125,0.006 c -2.94375,0 -4.40125,-0.23875 -5.12125,-0.46875 -0.001,-6.72 0,-83.09 0,-83.88875 0,-10.6675 -8.67875,-19.3475 -19.3425,-19.3475 l -49.165,0 c -10.66375,0 -19.34,8.68 -19.34,19.3475 l 0,88.26875 14.87875,0 0,-88.26875 c 0,-2.46375 2.0025,-4.4625 4.46125,-4.4625 l 49.165,0 c 2.4625,0 4.465,1.99875 4.465,4.4625 0,14.03 -0.002,84.07625 0,84.42625 0.035,5.53375 2.6825,14.80625 19.99875,14.80625 l 1.90125,-0.002 c 8.19,0 14.85125,-6.6625 14.85125,-14.84625 0,-0.465 0.075,-60.91375 0.075,-60.92625 0,-2.455 2.0025,-4.45875 4.46375,-4.45875 l 18.85375,0 c 2.4625,0 4.465,2.00375 4.465,4.47875 l 0.0225,9.19375 c 0.002,0.7175 0.005,1.40625 0.0512,2.07125 l -0.0325,0.003 c 0.56375,10.58125 11.52875,17.34125 18.82875,17.34125 0.25375,0 0.50875,-0.007 0.76125,-0.025 l 16.6575,0 c 10.6625,0 19.33875,-8.67375 19.33875,-19.34375 l -0.003,-13.76875 0.99375,-100.005 c 0,-2.91 0.63,-4.20625 0.77375,-4.3775 0.055,-0.0213 0.285,-0.085 0.715,-0.085 l 8.3675,0 c 10.46,0 18.34875,-8.31375 18.34875,-19.3375 l 0,-33.78875 c 0,-1.135 0.43625,-2.22 1.22625,-3.055 l 0.002,0 c 0.009,-0.009 0.02,-0.0237 0.0337,-0.03 0.065,-0.07 6.745,-7.205 7.24625,-13.19125 0.0138,-0.205 0.025,-0.4125 0.025,-0.62125 l 0,-37.495 c 0,-1.145 0.1425,-3.1575 1.10625,-3.7575 0.16,-0.10375 0.3175,-0.21125 0.4725,-0.3225 4.28375,-3.18125 7.0275,-7.94125 7.525,-13.07875 0.0213,-0.235 0.0338,-0.4725 0.0338,-0.71625 l 0,-66.00375 c 0.2525,-0.0987 3.47375,-0.1825 3.69625,-0.2525 0.2225,0.07 0.465,0.15375 0.71875,0.2525 l 0,65.83375 c 0,0.19625 0.009,0.3925 0.025,0.59375 0.42375,5.2875 3.2,10.17375 7.61,13.41625 0.135,0.1 0.27875,0.19625 0.41875,0.29 0.94625,0.59375 1.0875,2.60625 1.0875,3.745 l 0,32.8125 c 0,0.2025 0.01,0.39875 0.0238,0.59625 l 0,3.245 c 0,5.4725 4.89125,11.84625 6.6525,13.95375 0.74125,1.2075 1.6825,3.13875 1.8575,3.96875 l 0,33.605 c 0,10.66125 8.675,19.3375 19.33875,19.3375 l 6.25375,0 c 2.45875,0 4.4625,2.00375 4.4625,4.4625 l 0,114.88125 c 0,0.2275 0.0113,0.45625 0.03,0.68125 0.92875,10.01 9.195,17.555 19.22625,17.555 l 8.35625,0 c 10.04,0 18.3025,-7.545 19.22875,-17.555 0.0188,-0.225 0.0288,-0.45375 0.0288,-0.68125 l 0,-55.15375 c 0,-2.46125 2.00125,-4.46375 4.4675,-4.46375 l 28.45,0 c 2.46,0 4.4675,2.0025 4.4675,4.46375 l 0.0325,58.55125 c 0,7.74625 6.1625,14.07 13.84125,14.3275 0.63,0.0612 1.26375,0.0438 1.88375,-0.055 16.41625,-1.01625 18.89,-8.10625 18.89,-12.26625 l 0.04,-23.23125 c 0,-2.46 2.00375,-4.4625 4.4625,-4.4625 l 5.4425,0 c 2.4625,0 4.46375,2.0025 4.46375,4.47 l 0.0312,48.84875 c 0,3.35875 2.05375,7.64 5.225,10.90125 2.84875,2.9225 7.86375,6.40875 15.6075,6.40375 4.98375,0 10.365,-1.505 15.99625,-4.48375 0.65875,-0.34125 1.35375,-0.67625 2.0425,-1.005 4.2225,-2.025 12.08125,-5.78875 11.44625,-14.655 -0.23125,-3.305 -1.31,-6.4225 -2.355,-9.4425 -2.44625,-7.0675 -3.61,-11.345 0.845,-17.11875 5.26625,-6.8325 19.26125,-24.975 8.83125,-38.8875 -4.6325,-6.17375 -5.03875,-8.5925 -3.975,-13.19375 0.59625,-2.6 5.14625,-5.97625 8.17375,-7.4025 1.87875,-0.8675 3.31375,-2.4825 3.95,-4.46 0.59125,-1.79625 0.4625,-3.74 -0.33125,-5.44625 -0.2075,-0.90375 0.27625,-3.38 3.56375,-6.78125 1.69,-1.74375 2.3025,-3.53 2.43125,-5.04375 2.025,-0.41 3.8475,-0.95625 5.08375,-1.66 1.73125,-0.985 4.67875,-3.505 4.9475,-9.215 0.19625,-4.32 -1.2125,-10.5175 -5.8425,-13.7475 -0.0238,-0.0225 -0.05,-0.0375 -0.0588,-0.0437 -0.0613,-0.1525 -0.32625,-0.94375 -0.18,-3.2925 0.2025,-3.265 1.64625,-5.60125 2.26375,-6.46375 0.35,-0.49 0.68,-1.01375 1.01125,-1.53875 0.14375,-0.23375 0.3325,-0.515 0.475,-0.735 0.2625,-0.0288 0.6725,-0.0612 1.2175,-0.0612 2.05875,0 3.49125,0.4225 4.095,0.7225 0.33625,1.39875 0.56375,2.825 0.79125,4.2075 0.595,3.78125 1.27875,8.03375 4.53375,10.98375 -0.39375,0.695 -0.835,1.44 -1.18375,1.95 -2.66875,1.46125 -5.31375,4.075 -5.91625,7.72875 -0.4775,2.91125 0.505,5.84125 2.635,7.985 -0.0112,0.24875 -0.0275,0.53875 -0.0488,0.84875 -0.0362,0.53625 -0.17625,0.965 -0.45875,1.80375 -0.8,2.33125 -2.27875,6.66375 1.205,12.47875 3.6225,6.0375 6.5,14.8375 5.7125,17.44 -0.7975,2.61875 -4.10625,6.54125 -6.5175,9.40125 -2.49125,2.955 -4.4525,5.2825 -5.37375,7.8025 -2.39625,6.59625 -1.2875,12.45875 3.4,17.92625 0.39875,0.465 0.6775,0.8175 0.8775,1.09125 -0.095,0.145 -0.2075,0.31125 -0.35125,0.5075 -1.3825,1.89125 -8.0875,11.72375 -3.9875,19.805 1.20875,2.3875 4.32875,6.39125 11.63875,6.39125 0.20125,0 0.405,-0.005 0.625,-0.01 12.64125,-0.38125 30.42375,-10.84625 33.1725,-22.51 l 0.12,-0.50875 z"
         style="fill:#f03c3b;fill-opacity:1;fill-rule:nonzero;stroke:none"
         id="path4217"
         inkscape:connector-curvature="0" />
      <path
         inkscape:export-ydpi="78.029999"
         inkscape:export-xdpi="78.029999"
         d="m -932.9304,700.33615 c -4.07375,-11.06625 -8.10875,-21.78 -12.11625,-32.1475 -4.00625,-10.36625 -8.17375,-20.32 -12.49625,-29.85875 -4.45375,9.53875 -8.68,19.4925 -12.6875,29.85875 -4.0075,10.3675 -7.98375,21.08125 -11.92375,32.1475 l 49.22375,0 z m 17.36125,49.0325 c -2.165,-5.72375 -4.1975,-11.3525 -6.10625,-16.88375 -1.9075,-5.535 -3.88125,-11.16375 -5.91375,-16.88625 l -59.9075,0 -12.02,33.77 -19.26875,0 c 5.085,-13.99 9.855,-26.93125 14.3088,-38.82625 4.4499,-11.8925 8.8062,-23.18 13.06745,-33.865 4.26125,-10.68375 8.49125,-20.89 12.68875,-30.62125 4.1975,-9.73 8.585,-19.365 13.165,-28.90375 l 16.97875,0 c 4.57875,9.53875 8.9675,19.17375 13.16375,28.90375 4.19875,9.73125 8.425,19.9375 12.69,30.62125 4.2575,10.685 8.61375,21.9725 13.0675,33.865 4.45,11.895 9.22,24.83625 14.30875,38.82625 l -20.2225,0 z"
         style="fill:#2b394c;fill-opacity:1;fill-rule:nonzero;stroke:none"
         id="path4221"
         inkscape:connector-curvature="0" />
      <path
         inkscape:export-ydpi="78.029999"
         inkscape:export-xdpi="78.029999"
         d="m -819.60215,665.80377 c -1.7825,-0.50625 -4.1675,-0.9825 -7.155,-1.43125 -2.99,-0.44375 -7.02875,-0.66875 -12.115,-0.66875 -9.54,0 -16.88375,3.1175 -22.03625,9.35 -5.15125,6.2325 -7.7275,14.4975 -7.7275,24.80375 0,5.7225 0.73125,10.62 2.195,14.69 1.46125,4.07125 3.43375,7.44 5.91375,10.1125 2.48125,2.67 5.3425,4.6425 8.585,5.915 3.245,1.26875 6.58375,1.905 10.0175,1.905 4.70375,0 9.03,-0.6675 12.97375,-2.00375 3.94,-1.335 7.05875,-2.89125 9.34875,-4.6725 l 0,-58 z m 0.19,73.64375 c -1.52625,1.0175 -4.48375,2.32125 -8.87,3.91125 -4.38875,1.59125 -9.51125,2.385 -15.36,2.385 -5.97875,0 -11.6075,-0.955 -16.885,-2.86125 -5.27875,-1.90875 -9.89125,-4.86625 -13.83125,-8.8725 -3.94375,-4.00625 -7.06,-8.9975 -9.34875,-14.97625 -2.29,-5.9775 -3.43375,-13.1 -3.43375,-21.36875 0,-7.25 1.07875,-13.89375 3.2425,-19.9375 2.16125,-6.04 5.31,-11.2575 9.445,-15.645 4.13125,-4.3875 9.1875,-7.8225 15.1675,-10.3025 5.97625,-2.48 12.71625,-3.72 20.22375,-3.72 8.265,0 15.4825,0.60375 21.65375,1.81375 6.1675,1.21 11.35125,2.32 15.54875,3.3375 l 0,88.52625 c 0,15.26125 -3.94375,26.33 -11.82875,33.19625 -7.88875,6.86875 -19.8425,10.3025 -35.86875,10.3025 -6.2325,0 -12.115,-0.50875 -17.64625,-1.525 -5.53375,-1.02125 -10.33625,-2.22875 -14.405,-3.625 l 3.24375,-15.45375 c 3.55875,1.3975 7.91625,2.6375 13.0675,3.71875 5.1525,1.07875 10.52375,1.6225 16.1225,1.6225 10.55625,0 18.155,-2.09875 22.79875,-6.29625 4.64125,-4.2 6.96375,-10.87375 6.96375,-20.0325 l 0,-4.1975 z"
         style="fill:#2b394c;fill-opacity:1;fill-rule:nonzero;stroke:none"
         id="path4225"
         inkscape:connector-curvature="0" />
      <path
         inkscape:export-ydpi="78.029999"
         inkscape:export-xdpi="78.029999"
         inkscape:connector-curvature="0"
         id="path4227"
         style="fill:#2b394c;fill-opacity:1;fill-rule:nonzero;stroke:none"
         d="m -753.5939,749.36865 -17.7425,0 0,-99.20875 17.7425,0 0,99.20875 z m -8.96625,-117.1425 c -3.18125,0 -5.885,-1.05 -8.10875,-3.15125 -2.22625,-2.0975 -3.33875,-4.925 -3.33875,-8.48875 0,-3.5575 1.1125,-6.39 3.33875,-8.49 2.22375,-2.09875 4.9275,-3.1475 8.10875,-3.1475 3.17875,0 5.8825,1.04875 8.10875,3.1475 2.22375,2.1 3.33875,4.9325 3.33875,8.49 0,3.56375 -1.115,6.39125 -3.33875,8.48875 -2.22625,2.10125 -4.93,3.15125 -8.10875,3.15125" />
      <path
         inkscape:export-ydpi="78.029999"
         inkscape:export-xdpi="78.029999"
         d="m -693.30465,751.2774 c -10.94,-0.25625 -18.6975,-2.6075 -23.2775,-7.05875 -4.5775,-4.45125 -6.8675,-11.3825 -6.8675,-20.7975 l 0,-119.05125 17.74375,-3.0525 0,119.2425 c 0,2.9275 0.25375,5.34 0.7625,7.25 0.5075,1.90875 1.335,3.43375 2.48,4.57875 1.145,1.145 2.67125,2.0025 4.58,2.57625 1.9075,0.57 4.25875,1.04875 7.05875,1.43 l -2.48,14.8825 z"
         style="fill:#2b394c;fill-opacity:1;fill-rule:nonzero;stroke:none"
         id="path4231"
         inkscape:connector-curvature="0" />
      <path
         inkscape:export-ydpi="78.029999"
         inkscape:export-xdpi="78.029999"
         d="m -608.40528,690.2239 c 0.125,-8.0125 -1.87875,-14.595 -6.01125,-19.74625 -4.13375,-5.15 -9.825,-7.7275 -17.075,-7.7275 -4.07125,0 -7.665,0.79625 -10.77875,2.385 -3.11875,1.5925 -5.7575,3.6575 -7.91875,6.2025 -2.16375,2.54375 -3.84875,5.46875 -5.05625,8.775 -1.20875,3.30875 -2.0025,6.67875 -2.38375,10.11125 l 49.22375,0 z m -68.1125,9.73125 c 0,-8.77625 1.27,-16.43875 3.81625,-22.99 2.5425,-6.55 5.915,-11.9875 10.1125,-16.3125 4.19625,-4.3225 9.02875,-7.56625 14.49875,-9.73125 5.4675,-2.16125 11.06625,-3.24125 16.79,-3.24125 13.35625,0 23.59125,4.16625 30.7175,12.495 7.12125,8.3325 10.68375,21.01875 10.68375,38.06125 l 0,2.9575 c 0,1.21125 -0.0675,2.3225 -0.19125,3.3375 l -67.92125,0 c 0.76375,10.30375 3.75,18.12875 8.9675,23.46875 5.215,5.3425 13.35625,8.01375 24.42125,8.01375 6.23125,0 11.4775,-0.54125 15.74,-1.6225 4.25875,-1.07875 7.47,-2.12875 9.635,-3.14875 l 2.48,14.8825 c -2.16375,1.145 -5.94875,2.355 -11.35125,3.62375 -5.40875,1.2725 -11.5425,1.90875 -18.4125,1.90875 -8.65,0 -16.12125,-1.305 -22.41625,-3.91 -6.2975,-2.605 -11.48,-6.2025 -15.55125,-10.77875 -4.07125,-4.58125 -7.09125,-10.01875 -9.06125,-16.31375 -1.97375,-6.295 -2.9575,-13.19625 -2.9575,-20.7"
         style="fill:#2b394c;fill-opacity:1;fill-rule:nonzero;stroke:none"
         id="path4235"
         inkscape:connector-curvature="0" />
      <path
         inkscape:export-ydpi="78.029999"
         inkscape:export-xdpi="78.029999"
         d="m -475.48603,631.27127 c 1.52375,5.2175 3.205,11.09875 5.0475,17.6475 1.8425,6.55125 3.81,13.325 5.905,20.32 2.09375,6.995 4.22125,13.99 6.37875,20.985 2.15875,6.99625 4.255,13.485 6.2875,19.46125 1.66125,-6.4875 3.35375,-13.54625 5.08125,-21.17875 1.7225,-7.62875 3.355,-15.51375 4.885,-23.6575 1.53125,-8.13625 3.035,-16.2475 4.505,-24.32375 1.4675,-8.0775 2.84375,-15.86625 4.12375,-23.3725 l 30.915,0 c -4.47625,22.13125 -9.62875,44.58 -15.45125,67.34875 -5.82125,22.7675 -12.12375,44.39 -18.90375,64.8675 l -27.22125,0 c -4.445,-12.21125 -8.7625,-25.0225 -12.95,-38.44375 -4.19125,-13.41875 -8.3175,-26.86875 -12.37625,-40.3525 -4.075,13.48375 -8.15125,26.93375 -12.225,40.3525 -4.0775,13.42125 -8.3425,26.2325 -12.8,38.44375 l -27.20125,0 c -6.77375,-20.4775 -13.0625,-42.1 -18.8725,-64.8675 -5.81375,-22.76875 -10.95375,-45.2175 -15.425,-67.34875 l 32.24375,0 c 1.275,7.50625 2.68125,15.295 4.21875,23.3725 1.53125,8.07625 3.12875,16.1875 4.7925,24.32375 1.66,8.14375 3.355,16.02875 5.08,23.6575 1.72625,7.6325 3.48375,14.69125 5.27375,21.17875 2.2925,-6.23125 4.52125,-12.84625 6.68875,-19.8425 2.165,-6.9925 4.27,-13.99125 6.3075,-20.98875 2.04,-6.99125 3.9175,-13.73375 5.63875,-20.22 1.72,-6.48875 3.2825,-12.275 4.6825,-17.3625 l 25.37125,0 z"
         style="fill:#f03c3b;fill-opacity:1;fill-rule:nonzero;stroke:none"
         id="path4239"
         inkscape:connector-curvature="0" />
      <path
         inkscape:export-ydpi="78.029999"
         inkscape:export-xdpi="78.029999"
         d="m -352.37078,729.52565 c 2.79375,0 5.46625,-0.0625 8.01125,-0.19 2.54375,-0.12375 4.58,-0.31375 6.1075,-0.57125 l 0,-21.55875 c -1.1475,-0.25625 -2.86125,-0.5075 -5.15125,-0.765 -2.29,-0.2525 -4.38875,-0.38 -6.2975,-0.38 -2.67,0 -5.18375,0.15875 -7.53625,0.475 -2.35375,0.31875 -4.42125,0.92375 -6.20125,1.81375 -1.78,0.89 -3.18,2.0975 -4.19625,3.625 -1.01875,1.52625 -1.52625,3.435 -1.52625,5.72125 0,4.455 1.49375,7.5375 4.48375,9.25375 2.98625,1.71875 7.08875,2.57625 12.30625,2.57625 m -2.29,-83.18125 c 8.395,0 15.38875,0.9525 20.98875,2.86125 5.59375,1.90875 10.0775,4.645 13.45,8.20375 3.3675,3.5625 5.7525,7.8875 7.1525,12.97375 1.39875,5.08875 2.09875,10.7475 2.09875,16.98 l 0,59.1425 c -4.07125,0.89125 -9.73125,1.94125 -16.98,3.14875 -7.25,1.205 -16.02625,1.81375 -26.32875,1.81375 -6.48625,0 -12.37125,-0.5725 -17.64875,-1.71875 -5.2775,-1.14375 -9.825,-3.01875 -13.64,-5.62625 -3.81375,-2.60625 -6.74375,-6.01125 -8.77625,-10.20875 -2.0375,-4.19625 -3.0525,-9.35 -3.0525,-15.45375 0,-5.8475 1.175,-10.8075 3.52875,-14.88125 2.3525,-4.07 5.50125,-7.3125 9.445,-9.73125 3.94,-2.415 8.4575,-4.1625 13.545,-5.245 5.0875,-1.08 10.36375,-1.62125 15.83625,-1.62125 3.6875,0 6.965,0.16 9.82625,0.475 2.86,0.32 5.17875,0.73375 6.96375,1.24125 l 0,-2.67125 c 0,-4.8325 -1.46625,-8.7125 -4.39,-11.63875 -2.925,-2.925 -8.01,-4.38875 -15.26375,-4.38875 -4.8325,0 -9.6025,0.3525 -14.30875,1.05 -4.70625,0.70125 -8.775,1.68625 -12.20875,2.95875 l -3.625,-22.89375 c 1.65,-0.5075 3.72125,-1.05125 6.2,-1.62375 2.48,-0.57125 5.18125,-1.08 8.10875,-1.525 2.92375,-0.445 6.01,-0.8275 9.255,-1.145 3.24,-0.3175 6.515,-0.47625 9.82375,-0.47625"
         style="fill:#f03c3b;fill-opacity:1;fill-rule:nonzero;stroke:none"
         id="path4243"
         inkscape:connector-curvature="0" />
      <path
         inkscape:export-ydpi="78.029999"
         inkscape:export-xdpi="78.029999"
         d="m -224.73527,674.19852 c -2.54625,-0.63625 -5.5325,-1.3025 -8.97,-2.005 -3.4325,-0.6975 -7.12,-1.0475 -11.06125,-1.0475 -1.785,0 -3.91125,0.16 -6.39375,0.47625 -2.47875,0.31875 -4.36,0.6675 -5.6275,1.05 l 0,76.69625 -28.425,0 0,-95.01375 c 5.0825,-1.7775 11.09375,-3.46375 18.02625,-5.055 6.93,-1.58625 14.66125,-2.38375 23.18125,-2.38375 1.5275,0 3.37,0.095 5.5325,0.285 2.15875,0.19125 4.32125,0.4475 6.4875,0.765 2.16,0.31875 4.3225,0.6975 6.48625,1.14375 2.1625,0.44625 4.00875,0.9875 5.5325,1.62125 l -4.76875,23.4675 z"
         style="fill:#f03c3b;fill-opacity:1;fill-rule:nonzero;stroke:none"
         id="path4247"
         inkscape:connector-curvature="0" />
      <path
         inkscape:export-ydpi="78.029999"
         inkscape:export-xdpi="78.029999"
         d="m -175.89615,728.9544 c 5.2175,0 8.9,-0.5075 11.0675,-1.52625 2.16125,-1.01625 3.2425,-2.9875 3.2425,-5.91375 0,-2.29 -1.40125,-4.295 -4.19375,-6.01 -2.8,-1.71875 -7.0625,-3.6575 -12.78625,-5.81875 -4.4525,-1.6525 -8.49,-3.3675 -12.115,-5.15375 -3.625,-1.7775 -6.7075,-3.91 -9.25375,-6.39 -2.5475,-2.48 -4.5125,-5.43875 -5.9125,-8.87125 -1.40375,-3.43375 -2.1,-7.5675 -2.1,-12.4025 0,-9.41 3.5,-16.85 10.4925,-22.32125 6.9975,-5.46625 16.59875,-8.2025 28.8075,-8.2025 6.10875,0 11.95875,0.5425 17.55625,1.62125 5.59375,1.08125 10.04375,2.25875 13.3525,3.52875 l -4.96,22.13 c -3.30875,-1.1425 -6.89875,-2.16125 -10.77625,-3.05125 -3.88625,-0.8875 -8.24125,-1.33375 -13.0725,-1.33375 -8.9025,0 -13.3525,2.47875 -13.3525,7.43875 0,1.145 0.18875,2.16375 0.57,3.0525 0.38375,0.89125 1.145,1.75 2.29,2.5775 1.14375,0.8275 2.7,1.72125 4.675,2.68125 1.97,0.96375 4.485,2.02 7.53625,3.1725 6.23125,2.31 11.38125,4.58625 15.45625,6.82875 4.06625,2.24375 7.2775,4.6675 9.63375,7.27 2.3525,2.60125 4.005,5.48875 4.96125,8.66 0.9525,3.17125 1.42625,6.855 1.42625,11.04 0,9.9 -3.7175,17.38875 -11.15625,22.46375 -7.44625,5.075 -17.97,7.615 -31.57875,7.615 -8.9025,0 -16.31,-0.7625 -22.2275,-2.29 -5.91,-1.525 -10.015,-2.79625 -12.30375,-3.815 l 4.77,-23.085 c 4.83,1.9075 9.7925,3.40375 14.87875,4.48375 5.08625,1.08 10.1125,1.62125 15.0725,1.62125"
         style="fill:#f03c3b;fill-opacity:1;fill-rule:nonzero;stroke:none"
         id="path4251"
         inkscape:connector-curvature="0" />
      <path
         inkscape:export-ydpi="78.029999"
         inkscape:export-xdpi="78.029999"
         d="m -73.828275,729.52565 c 2.79875,0 5.46875,-0.0625 8.015,-0.19 2.5425,-0.12375 4.58,-0.31375 6.10375,-0.57125 l 0,-21.55875 c -1.14375,-0.25625 -2.86,-0.5075 -5.15,-0.765 -2.29,-0.2525 -4.39,-0.38 -6.29375,-0.38 -2.675,0 -5.1875,0.15875 -7.54,0.475 -2.35125,0.31875 -4.4175,0.92375 -6.19875,1.81375 -1.78375,0.89 -3.17875,2.0975 -4.1975,3.625 -1.01875,1.52625 -1.52875,3.435 -1.52875,5.72125 0,4.455 1.49625,7.5375 4.48375,9.25375 2.99125,1.71875 7.09,2.57625 12.30625,2.57625 m -2.29,-83.18125 c 8.39625,0 15.39,0.9525 20.9875,2.86125 5.59875,1.90875 10.0825,4.645 13.4525,8.20375 3.37,3.5625 5.755,7.8875 7.155,12.97375 1.39875,5.08875 2.09875,10.7475 2.09875,16.98 l 0,59.1425 c -4.07375,0.89125 -9.72875,1.94125 -16.98,3.14875 -7.25,1.205 -16.0275,1.81375 -26.32625,1.81375 -6.49,0 -12.37375,-0.5725 -17.6525,-1.71875 -5.27875,-1.14375 -9.826255,-3.01875 -13.638755,-5.62625 -3.815,-2.60625 -6.7425,-6.01125 -8.77625,-10.20875 -2.03875,-4.19625 -3.0525,-9.35 -3.0525,-15.45375 0,-5.8475 1.17125,-10.8075 3.52751,-14.88125 2.35249,-4.07 5.49875,-7.3125 9.44374,-9.73125 3.9425,-2.415 8.458755,-4.1625 13.547505,-5.245 5.085,-1.08 10.36375,-1.62125 15.8325,-1.62125 3.69,0 6.96625,0.16 9.82625,0.475 2.86375,0.32 5.1825,0.73375 6.96375,1.24125 l 0,-2.67125 c 0,-4.8325 -1.46125,-8.7125 -4.38375,-11.63875 -2.9325,-2.925 -8.0175,-4.38875 -15.2675,-4.38875 -4.835,0 -9.60375,0.3525 -14.3075,1.05 -4.70875,0.70125 -8.777495,1.68625 -12.211255,2.95875 l -3.62625,-22.89375 c 1.65251,-0.5075 3.7225,-1.05125 6.2025,-1.62375 2.48001,-0.57125 5.178755,-1.08 8.106255,-1.525 2.92875,-0.445 6.0125,-0.8275 9.255,-1.145 3.245,-0.3175 6.515,-0.47625 9.82375,-0.47625"
         style="fill:#f03c3b;fill-opacity:1;fill-rule:nonzero;stroke:none"
         id="path4255"
         inkscape:connector-curvature="0" />
      <path
         inkscape:export-ydpi="78.029999"
         inkscape:export-xdpi="78.029999"
         d="m 52.568225,691.75102 c -2.5425,9.6675 -5.245,19.26875 -8.10625,28.80875 -2.86,9.54 -5.8825,19.14375 -9.0625,28.80875 l -22.13125,0 c -2.2925,-5.3425 -4.78625,-11.70125 -7.46,-19.07875 -2.67875,-7.375 -5.45875,-15.4225 -8.3225,-24.13375 -2.875,-8.71125 -5.805,-17.93375 -8.8075,-27.66375 -2.9975,-9.7325 -5.895,-19.55625 -8.7025,-29.4775 l 29.95625,0 c 1.02125,4.58 2.14125,9.5725 3.35375,14.975 1.2175,5.40875 2.495,10.9725 3.8425,16.69375 1.34,5.725 2.74875,11.48125 4.2225,17.26875 1.46875,5.78875 2.9725,11.35 4.5075,16.69375 1.6525,-5.595 3.27625,-11.31875 4.865,-17.17375 1.59125,-5.8475 3.12,-11.6025 4.58,-17.26375 1.46125,-5.65875 2.86125,-11.13125 4.2,-16.4075 1.335,-5.27875 2.50875,-10.20625 3.52625,-14.78625 l 20.60625,0 c 1.0175,4.58 2.16125,9.5075 3.4375,14.78625 1.26625,5.27625 2.60375,10.74875 4.00375,16.4075 1.39875,5.66125 2.86,11.41625 4.3875,17.26375 1.52875,5.855 3.115,11.57875 4.77,17.17375 1.535,-5.34375 3.0725,-10.905 4.60375,-16.69375 1.53625,-5.7875 2.9775,-11.54375 4.3225,-17.26875 1.3425,-5.72125 2.62125,-11.285 3.83375,-16.69375 1.2175,-5.4025 2.33625,-10.395 3.3625,-14.975 l 29.571245,0 c -2.80874,9.92125 -5.71,19.745 -8.70875,29.4775 -2.99749,9.73 -5.9325,18.9525 -8.79749,27.66375 -2.87375,8.71125 -5.67626,16.75875 -8.42126,24.13375 -2.741245,7.3775 -5.258745,13.73625 -7.557495,19.07875 l -22.12875,0 c -3.18125,-9.665 -6.29875,-19.26875 -9.34875,-28.80875 -3.0525,-9.54 -5.85,-19.14125 -8.3975,-28.80875"
         style="fill:#f03c3b;fill-opacity:1;fill-rule:nonzero;stroke:none"
         id="path4259"
         inkscape:connector-curvature="0" />
    </g>
    <path
       style="fill:#ffffff;fill-opacity:1;fill-rule:nonzero;stroke:#ffffff;stroke-opacity:1"
       d="m -477.74805,196.30664 c -5.51704,0.82604 -14.87405,3.19819 -13.27734,10.51172 -0.46412,22.85077 0.93192,45.98968 -0.70703,68.66602 -3.23534,4.2728 -8.94584,7.54865 -8.11133,13.69531 -1.5942,13.3537 1.14371,26.98674 -0.96875,40.22461 -2.58552,6.15045 -9.56238,10.48147 -7.92546,18.02512 -0.5493,12.08763 1.37334,24.50899 -0.94563,36.39675 -4.34001,7.86563 -14.34376,1.57754 -20.75782,5.42969 -9.33421,6.46187 -5.88114,19.42776 -6.63165,28.96417 -0.60888,33.96813 -0.0137,68.11092 -1.46405,101.97333 -3.29622,7.61841 -13.06846,4.97446 -19.45508,5.25195 -6.74839,2.12854 -16.13533,-3.42192 -13.63672,-11.23633 1.48385,-9.3392 -3.42999,-21.59036 -14.3286,-21.47636 -8.71996,-0.61045 -17.87869,-1.11778 -26.38233,0.98027 -9.64235,4.31351 -9.86853,16.11988 -8.97686,25.08203 -0.0234,18.01236 -0.0323,36.02474 -0.0349,54.03711 -4.70923,-1.10744 -12.91017,1.97012 -15.02344,-4.12695 -0.45328,-29.73535 0.93056,-59.60089 -0.72461,-89.25391 -3.09975,-9.88555 -14.74506,-11.88559 -23.66016,-10.43555 -15.45681,0.50392 -31.16678,-1.54604 -46.36523,1.19141 -9.83162,4.21154 -9.90671,16.1265 -9.09766,25.13281 0,24.46289 0,48.92578 0,73.38868 3.32203,0.73315 9.45886,0.0688 7.14454,-4.92774 -0.3014,-27.34203 -0.73593,-54.92082 0.20312,-82.27539 2.7995,-7.60954 12.48297,-5.80132 18.74219,-5.58008 13.94503,0.29932 28.21482,-1.18374 41.99414,0.70508 7.37603,3.67105 4.37497,13.19945 4.88672,19.62305 0.43217,25.33774 -0.86367,50.81745 0.63086,76.06445 3.8391,8.34663 15.95686,8.64454 23.34375,5.40039 7.68722,-5.91775 4.00958,-17.03535 4.83883,-25.31833 0.4412,-16.03932 -1.03977,-32.38114 0.83695,-48.24807 3.61773,-7.29011 13.02166,-4.43751 19.38476,-4.86719 5.97921,-1.23499 15.29019,0.30809 15.54688,7.96484 -0.50716,8.26822 -0.92641,19.18264 8.30664,23.15039 8.84923,3.91033 18.82053,1.47547 28.11523,1.42969 10.29911,-2.63308 12.71064,-14.799 11.25587,-23.91005 0.55176,-36.4687 -0.0347,-73.06199 1.57421,-109.45323 2.88524,-6.77041 11.23446,-2.36829 16.58008,-4.02735 9.87187,-2.11466 12.47864,-14.33264 11.08789,-22.99023 0.43773,-9.78347 -1.28123,-19.94103 0.83203,-29.5 4.77348,-5.64151 9.46034,-12.46478 7.69213,-20.31547 0.58185,-11.6905 -1.51521,-23.89247 1.03248,-35.26656 3.72816,-4.63425 9.72803,-8.7482 7.95683,-15.68729 0.23451,-22.24684 -0.003,-44.495 0.0901,-66.7424 4.093,-0.80149 11.857,-2.44312 12.6289,3.60156 -0.07,23.30441 -0.99445,46.83409 0.51172,70.05469 2.66599,5.00929 9.73446,7.988 8.38087,14.7747 0.80584,13.18498 -1.46034,26.70172 1.11132,39.68038 3.40774,6.13011 9.46885,12.08612 7.51562,19.77539 0.94309,12.09033 -2.63477,25.0829 2.62696,36.44531 5.04602,7.43884 14.54633,6.30226 22.11914,7.10742 7.66331,3.43437 4.89856,13.34176 5.25588,19.86913 0.34679,35.43673 -0.75306,70.97685 0.57419,106.34962 2.66441,9.5225 13.82939,12.0114 22.41407,10.88868 10.38119,0.53966 18.16281,-10.69565 15.88448,-20.45306 0.52311,-17.50471 -1.09117,-35.29259 0.79325,-52.63093 3.73032,-7.49533 13.42669,-4.3753 19.94141,-4.90234 7.53119,1.17373 17.69793,-3.29716 23.18164,3.91015 3.7263,6.96711 0.0867,15.08589 1.52991,22.52145 0.49783,15.15853 -1.43825,30.84311 1.17126,45.56644 4.85926,7.72844 16.62632,6.11495 23.08594,1.54883 4.50962,-4.83794 1.7368,-11.98453 2.29874,-17.91862 -0.3095,-6.33468 -1.27254,-16.10321 6.67587,-18.10286 6.20758,-1.80614 15.25079,0.34671 15.82812,7.98047 0.36013,6.6796 -0.71602,13.34825 0.0466,20.04101 0.401,11.1191 -1.60573,22.84273 1.26985,33.5625 5.53118,10.4345 20.27132,10.83023 29.37666,4.9386 6.09785,-2.233 14.09049,-7.5336 11.02959,-15.05774 -2.58616,-8.09437 -6.97233,-18.44038 -0.36807,-25.84245 6.62413,-8.85316 15.06604,-20.07374 10.66104,-31.6888 -4.94209,-6.33809 -10.22713,-15.91663 -4.19922,-23.32617 2.53369,-4.0224 9.84576,-4.46837 10.12109,-9.6582 -2.01231,-5.29983 1.76804,-9.69915 5.00391,-13.38477 1.51865,-2.29309 -0.75358,-6.0086 3.57422,-4.78125 8.56106,-0.83838 8.83554,-12.60531 3.31445,-17.30078 -4.92451,-5.13377 -2.02447,-14.16994 2.93164,-18.39453 4.4549,-3.48619 13.20312,-0.4095 12.22421,6.03556 0.5265,4.32598 1.604,9.24273 5.76407,11.52694 -1.01884,5.62416 -9.59372,7.8722 -7.89062,13.93164 5.65849,4.95525 -1.99343,12.49074 2.58789,17.84961 4.18951,7.77851 9.9558,18.64864 2.72656,26.50781 -4.94341,6.07153 -13.04408,13.79642 -8.1582,22.24219 1.51371,3.56511 7.32681,6.46963 2.78906,9.83594 -3.78447,5.11423 -7.29128,15.02661 -0.1875,18.72461 10.98193,3.29027 21.80178,-3.39624 29.85938,-10.28711 9.56055,-11.10824 7.85295,-27.54503 2.38508,-40.04954 -3.4979,-6.14464 3.42735,-1.06148 6.43132,0.0867 4.57472,1.84292 7.51429,6.64735 6.36133,11.52148 0.98826,4.80448 7.01689,4.77149 9.96484,1.86524 7.62423,-2.46473 14.3829,4.3274 21.57227,5.63867 -10.84233,1.33328 -22.31681,5.42188 -28.06445,15.42187 -2.91263,6.05059 -8.6875,14.21197 -2.79102,20.35742 7.85576,4.27749 5.56747,15.65511 -0.60742,20.39258 -3.4686,5.57279 3.15607,11.06649 8.58984,10.69922 4.55848,0.75544 8.43799,3.94246 11.45508,6.88867 2.34287,-0.39232 6.66418,1.33143 7.54687,-0.0508 -3.80467,-7.9681 -12.00459,-13.13685 -20.59765,-14.43359 7.8041,-8.21109 7.55439,-23.38477 -2.5957,-29.58008 3.2316,-9.06409 9.06415,-20.79057 20.34179,-20.26367 7.50899,-1.04946 11.62301,-12.24526 4.37891,-16.39258 -6.09026,-4.98507 -14.42102,-7.2776 -22.1582,-5.51172 -1.70863,-10.31584 -14.23616,-16.98521 -23.81446,-13.93555 -5.93722,5.64541 -0.3349,13.96891 0.98438,20.52344 1.80956,9.49665 -0.24091,21.3296 -9.59766,26.16016 -5.75328,3.72529 -12.54388,5.34205 -19.23437,6.38672 2.22564,-7.09374 10.65266,-13.40387 7.21289,-21.34766 -2.60138,-3.37684 -7.25753,-8.52517 -3.12696,-12.65039 6.64705,-7.26743 14.42718,-16.70419 10.66211,-27.24023 -1.09995,-6.59784 -6.7426,-12.44064 -6.49804,-18.91602 2.36323,-5.68869 -1.84299,-12.55304 3.54492,-17.07813 3.10897,-4.15087 3.60224,-10.34861 -0.87305,-13.7539 -3.85772,-5.47886 -1.10629,-14.80914 -8.80273,-17.45899 -7.06079,-3.81827 -17.75771,-2.33879 -20.90625,5.77539 -6.00247,8.5141 -5.26546,22.59292 4.82389,27.62346 4.74675,2.87114 -5.20901,1.29571 -7.74186,2.27303 -5.54419,1.20898 -11.98719,-0.44581 -14.38672,-6.05469 -3.99081,-5.78498 -1.27793,-13.07619 2.59783,-18.08914 5.72099,-9.50268 11.35381,-19.26129 17.90608,-28.13742 5.87394,-3.21492 12.8102,0.31735 19.09157,-1.10843 18.99131,-0.38414 38.25285,1.00104 57.03928,-0.72946 3.396,-3.05356 -0.88596,-8.00141 -4.78702,-6.32842 -21.83848,-0.20151 -43.72358,1.01741 -65.52352,-0.77314 -6.13072,-6.56964 -20.45707,-6.0873 -22.79102,3.76757 -0.34778,5.79326 4.75788,12.37181 0.18555,17.70899 -5.18603,9.17818 -13.45896,18.42876 -12.69922,29.55078 1.75639,9.18066 9.25444,15.71033 16.30664,21.13476 -4.59313,4.27089 -1.89155,12.694 -8.15039,15.31641 -10.14264,7.59624 -9.87532,22.92889 -1.76716,31.85246 5.37053,7.22768 -0.7202,15.78327 -4.90316,21.92299 -5.59875,7.08427 -10.9188,15.99811 -7.82577,25.32221 1.2101,4.84785 3.24458,9.45341 4.26367,14.35547 -7.76443,3.87603 -17.81838,11.17832 -26.33008,4.85742 -5.72084,-5.75606 -1.2539,-14.19344 -2.79687,-21.13867 -0.56584,-12.67206 1.61735,-25.75398 -1.37696,-38.16407 -5.4421,-11.00745 -22.94027,-11.99999 -31.03125,-3.5332 -6.74987,9.05565 -2.10666,20.9092 -4.06054,31.05469 -1.61176,4.02466 -7.03476,4.18125 -10.55469,3.51367 -4.40469,-3.75787 -0.7113,-10.29539 -2.00977,-15.19531 -0.40405,-17.37481 1.13807,-34.93192 -0.94336,-52.13086 -3.68759,-9.8868 -15.57193,-11.04997 -24.58008,-9.60352 -9.99208,0.33239 -23.17999,-3.31241 -30.35937,5.8125 -6.4303,10.10247 -1.72018,22.49256 -3.30342,33.66591 -0.49975,11.28522 1.50907,23.07417 -1.09697,34.07042 -4.203,6.22346 -13.13455,4.40982 -19.25781,3.23242 -7.34493,-3.8625 -4.02661,-13.39328 -4.68861,-19.90819 -0.37436,-35.30345 0.79563,-70.69314 -0.61217,-105.94142 -2.68823,-9.70192 -13.91999,-12.0917 -22.61133,-10.98828 -7.38929,-1.45069 -7.6395,-10.45165 -6.9375,-16.36133 -0.81215,-11.45873 2.84525,-24.0811 -3.08399,-34.58593 -3.93174,-4.64261 -6.6337,-10.4569 -5.43164,-16.63282 -0.59709,-12.28725 1.85166,-25.04599 -1.46679,-37.01953 -3.20335,-4.23063 -9.3175,-7.46043 -7.52344,-13.86328 -0.64829,-22.5966 0.98385,-45.56668 -0.79688,-67.91601 -2.68764,-3.66851 -7.83398,-5.18684 -12.15625,-5.07813 z"
       id="path4986"
       inkscape:connector-curvature="0"
       inkscape:export-xdpi="78.029999"
       inkscape:export-ydpi="78.029999" />
    <path
       style="fill:#ffffff;fill-opacity:1;fill-rule:nonzero;stroke:#ffffff;stroke-opacity:1"
       d="m -958.63477,620.53125 c -7.01722,0.77798 -6.56416,9.53092 -9.91824,14.05173 -16.96639,37.38835 -31.14905,75.94972 -45.24969,114.48538 5.158,-1.58813 13.1953,3.37802 16.19918,-3.17774 3.50697,-10.24938 7.23548,-20.42075 10.8418,-30.63476 20.91211,0 41.82422,0 62.73633,0 4.00604,11.21203 7.73255,22.52367 11.96484,33.6543 5.14068,-0.93986 10.8138,2.07877 15.58789,-1.02539 -15.77168,-42.8099 -31.35217,-85.81136 -51.28515,-126.91016 -3.64243,0.40151 -7.23862,-0.56085 -10.87696,-0.44336 z m 3.25977,14.62695 c 10.38434,22.4634 18.86744,45.68289 27.46289,68.83594 -18.31575,0 -36.63151,0 -54.94727,0 8.33018,-23.23124 16.9541,-46.78867 27.48438,-68.83594 z"
       id="path4988"
       inkscape:connector-curvature="0"
       inkscape:export-xdpi="78.029999"
       inkscape:export-ydpi="78.029999" />
    <path
       style="fill:#ffffff;fill-opacity:1;fill-rule:nonzero;stroke:#ffffff;stroke-opacity:1"
       d="m -838.21289,651.73242 c -21.66029,-0.97305 -42.47857,16.64887 -44.0957,38.47852 -3.25439,18.84206 2.7428,42.02105 21.20507,50.9082 14.488,7.13088 32.47978,5.17852 45.87696,-3.49805 0.74153,11.64442 -0.39714,27.1847 -12.7793,32.38672 -14.621,6.57226 -31.88125,3.4245 -46.79883,-1.08984 -0.15796,3.74172 -3.78836,9.88368 0.0977,12.30078 20.16614,4.72175 43.97777,7.14262 61.61328,-5.95117 12.59218,-11.11762 11.72082,-29.6179 11.37695,-44.93164 0,-24.62956 0,-49.25912 0,-73.88867 -11.93857,-2.89369 -24.1603,-5.13046 -36.49609,-4.71485 z m 1.85351,11.5957 c 6.97689,0.0153 14.09728,0.61136 20.9004,2.57032 0,20.19596 0,40.39192 0,60.58789 -13.1105,9.96672 -35.07785,11.42867 -45.87305,-2.67774 -10.65289,-15.04612 -9.62209,-37.39034 2.03515,-51.54687 5.88743,-6.1296 14.48026,-9.34297 22.9375,-8.9336 z"
       id="path4990"
       inkscape:connector-curvature="0"
       inkscape:export-xdpi="78.029999"
       inkscape:export-ydpi="78.029999" />
    <path
       style="fill:#ffffff;fill-opacity:1;fill-rule:nonzero;stroke:#ffffff;stroke-opacity:1"
       d="m -761.41797,612.57031 c -10.06547,0.14929 -11.41475,17.26864 -1.58594,19.13867 8.21473,2.83039 14.99472,-7.78589 10.81446,-14.69336 -1.77781,-3.29469 -5.66773,-4.6194 -9.22852,-4.44531 z m -2.66992,41.00391 c -4.45377,0.1243 -3.52341,5.38374 -2.83399,8.23633 -0.53543,28.93137 -0.29874,58.18203 -0.0977,87.23633 4.53077,-1.1997 10.19636,2.37097 13.88867,-1.74024 -0.84398,-31.07198 0.11229,-62.15769 -0.50391,-93.23242 -3.50142,0.10331 -6.95572,-0.60794 -10.45312,-0.5 z"
       id="path4992"
       inkscape:connector-curvature="0"
       inkscape:export-xdpi="78.029999"
       inkscape:export-ydpi="78.029999" />
    <path
       style="fill:#ffffff;fill-opacity:1;fill-rule:nonzero;stroke:#ffffff;stroke-opacity:1"
       d="m -707.90234,605.75 c -5.85757,1.15343 -14.22211,0.20758 -11.36613,8.65811 0.44028,40.23283 -1.14895,80.57787 0.90519,120.74033 2.21389,9.55099 11.91266,14.79924 21.0039,15.64453 3.76398,1.44488 5.89178,-2.50538 5.39063,-5.62891 1.75871,-2.43481 0.73337,-6.95462 -2.91016,-6.125 -9.97531,-1.71415 -11.88558,-13.34272 -10.6489,-21.68945 -0.0747,-37.33394 -0.0155,-74.66797 -0.0347,-112.00195 -0.77995,0.13411 -1.5599,0.26823 -2.33984,0.40234 z"
       id="path4994"
       inkscape:connector-curvature="0"
       inkscape:export-xdpi="78.029999"
       inkscape:export-ydpi="78.029999" />
    <path
       style="fill:#ffffff;fill-opacity:1;fill-rule:nonzero;stroke:#ffffff;stroke-opacity:1"
       d="m -630.19531,651.34961 c -21.47691,-0.2432 -39.89024,18.82493 -41.38041,39.81591 -3.19701,19.36962 1.74725,42.98187 19.86869,53.57081 16.6447,9.15741 37.10841,8.13916 54.55664,1.86914 -0.71648,-3.58906 -0.21876,-7.31449 -1.28906,-10.85352 -16.02048,5.0703 -36.16598,7.21901 -49.69532,-4.51172 -7.02919,-7.09671 -9.44382,-17.37415 -9.94921,-27.05078 22.76106,0 45.52213,0 68.2832,0 0.66862,-16.81141 -1.82238,-37.06425 -17.08984,-47.12304 -6.8728,-4.42214 -15.24505,-5.8749 -23.30469,-5.7168 z m 2.00976,11.02148 c 14.21738,-0.11927 24.61101,14.3363 23.98438,27.64453 1.01393,2.72281 -0.7351,5.79876 -3.78906,3.86524 -16.51962,-0.19965 -33.86354,0.39815 -49.8711,-0.29688 0.48555,-15.0138 11.79688,-31.74064 28.26563,-31.16796 0.47022,-0.0114 0.93945,-0.0521 1.41015,-0.0449 z"
       id="path4996"
       inkscape:connector-curvature="0"
       inkscape:export-xdpi="78.029999"
       inkscape:export-ydpi="78.029999" />
    <path
       style="fill:#ffffff;fill-opacity:1;fill-rule:nonzero;stroke:#ffffff;stroke-opacity:1"
       d="m -570.69336,623.21289 c 8.86263,42.43589 19.26577,84.60721 32.79883,125.8125 8.11719,0 16.23437,0 24.35156,0 9.98622,-27.52825 17.81363,-55.75886 26.42188,-83.73047 8.54185,28.02475 16.75672,56.16964 26.73047,83.73047 8.12434,0 16.24869,0 24.37304,0 13.80892,-41.98223 24.37305,-84.96257 33.35547,-128.21484 -8.92708,0 -17.85417,0 -26.78125,0 -5.69581,32.74925 -11.5435,65.63513 -20,97.73633 -9.36883,-27.61987 -17.45115,-55.5663 -25.4043,-83.61915 -7.44661,0 -14.89323,0 -22.33984,0 -7.47337,27.96471 -15.06773,55.95377 -25.11914,83.125 -8.8097,-31.99118 -14.92503,-64.621 -20.77539,-97.24218 -9.36849,0 -18.73698,0 -28.10547,0 0.16471,0.80078 0.32943,1.60156 0.49414,2.40234 z"
       id="path4998"
       inkscape:connector-curvature="0"
       inkscape:export-xdpi="78.029999"
       inkscape:export-ydpi="78.029999" />
    <path
       style="fill:#ffffff;fill-opacity:1;fill-rule:nonzero;stroke:#ffffff;stroke-opacity:1"
       d="m -354.93945,650.03125 c -9.70139,0.33716 -19.36687,1.7055 -28.76367,4.15039 1.8092,6.0408 0.52118,13.03856 4.26562,18.46094 12.84099,-2.61787 27.75547,-6.12432 39.69531,1.35742 5.2467,4.70368 6.29837,12.28571 5.68164,18.95898 -17.31559,-4.08621 -38.05668,-4.05111 -52.15429,8.22461 -13.22241,13.97922 -7.70217,41.52856 11.70182,46.71499 20.16778,6.17228 41.75194,2.63893 62.04232,-1.03139 3.50525,-1.12142 0.54648,-7.45868 1.49609,-10.7168 -0.27847,-21.28251 1.8324,-42.87238 -1.81641,-63.94531 -3.86691,-13.55186 -17.85309,-21.67221 -31.42349,-21.84201 -3.56333,-0.34091 -7.14817,-0.37655 -10.72494,-0.33182 z m 7.43164,55.6875 c 4.24739,0.51932 10.96064,-0.38564 13.39843,2.48633 -0.27573,7.85947 0.54911,16.72888 -0.4082,23.96289 -10.62535,0.84411 -24.34295,3.83595 -32.48242,-5.07617 -5.59324,-8.05676 0.64851,-20.7927 10.6875,-20.73047 2.90602,-0.50504 5.86147,-0.60114 8.80469,-0.64258 z"
       id="path5000"
       inkscape:connector-curvature="0"
       inkscape:export-xdpi="78.029999"
       inkscape:export-ydpi="78.029999" />
    <path
       style="fill:#ffffff;fill-opacity:1;fill-rule:nonzero;stroke:#ffffff;stroke-opacity:1"
       d="m -244.58398,650.58398 c -12.4545,0.11564 -24.70013,3.00209 -36.48633,6.84961 0,30.5306 0,61.0612 0,91.5918 8.14192,0 16.28385,0 24.42578,0 0,-25.41276 0,-50.82552 0,-76.23828 10.59185,-3.12831 21.9376,-2.17303 32.49414,0.58789 1.2847,-6.59756 2.8842,-13.12142 3.88867,-19.78125 -7.93952,-2.03922 -16.11947,-3.12024 -24.32226,-3.00977 z"
       id="path5002"
       inkscape:connector-curvature="0"
       inkscape:export-xdpi="78.029999"
       inkscape:export-ydpi="78.029999" />
    <path
       style="fill:#ffffff;fill-opacity:1;fill-rule:nonzero;stroke:#ffffff;stroke-opacity:1"
       d="m -168.44727,649.99414 c -14.4346,-0.42657 -31.836,6.98172 -34.85546,22.51367 -3.43638,13.85285 5.1089,29.09353 18.68164,33.47071 9.26936,4.53976 21.83516,5.66545 27.07031,15.62695 1.5004,7.05511 -5.96225,11.8375 -12.27734,10.87891 -11.03329,0.82275 -22.05315,-1.80074 -32.43165,-5.01954 -0.85836,6.43689 -3.65941,12.61714 -3.13671,19.21289 20.08241,6.4047 43.6572,8.34763 62.52539,-2.55273 15.23617,-11.28419 12.28808,-38.53622 -5.37696,-45.89062 -10.0032,-6.35456 -24.00754,-6.52484 -31.14257,-16.86133 -2.37775,-7.17264 5.10887,-13.06974 11.82226,-12.32227 8.90175,-0.82758 17.76081,1.19281 26.21875,3.79883 -1.98915,-6.28938 6.12567,-13.20866 1.01563,-18.82031 -8.80785,-3.34806 -18.71407,-3.97166 -28.11329,-4.03516 z"
       id="path5004"
       inkscape:connector-curvature="0"
       inkscape:export-xdpi="78.029999"
       inkscape:export-ydpi="78.029999" />
    <path
       style="fill:#ffffff;fill-opacity:1;fill-rule:nonzero;stroke:#ffffff;stroke-opacity:1"
       d="m -76.400391,650.03125 c -9.598726,0.69008 -19.584659,0.88602 -28.515629,4.89844 1.045,5.88322 1.30554,12.07744 3.11914,17.92383 13.121833,-2.70712 28.336203,-6.47385 40.560552,1.11132 5.280659,4.67814 6.334825,12.30569 5.71875,18.98828 -17.189591,-4.0618 -37.645961,-3.98392 -51.833982,7.86719 -13.33516,13.69058 -8.50792,41.30559 10.720701,46.86328 19.779595,6.40658 41.061801,2.992 61.023437,-0.45117 5.79706,-1.90753 2.308081,-9.39391 3.189076,-13.92968 -0.190998,-20.31619 1.686905,-40.9312 -1.784779,-61.04493 -3.865046,-13.55662 -17.839967,-21.70578 -31.419569,-21.89102 -3.580767,-0.34317 -7.183292,-0.3837 -10.777697,-0.33554 z m 7.441407,55.6875 c 4.499819,0.0391 8.986803,0.58749 13.392578,1.48828 -0.275524,8.19234 0.548825,17.39399 -0.408203,24.96094 -10.627189,0.84423 -24.341749,3.83631 -32.482422,-5.07617 -5.584331,-8.03645 0.629777,-20.77804 10.654297,-20.72266 2.917126,-0.51823 5.887984,-0.60545 8.84375,-0.65039 z"
       id="path5006"
       inkscape:connector-curvature="0"
       inkscape:export-xdpi="78.029999"
       inkscape:export-ydpi="78.029999" />
    <path
       style="fill:#ffffff;fill-opacity:1;fill-rule:nonzero;stroke:#ffffff;stroke-opacity:1"
       d="m 50.90625,652.5 c -6.256162,0.0412 -5.64902,7.81558 -6.960938,11.875 -4.875981,19.86819 -10.21191,39.643 -15.984374,59.23438 -6.798935,-23.40526 -12.216624,-47.13693 -17.486329,-70.9375 -8.5761715,0 -17.1523434,-10e-6 -25.728515,0 9.6054403,32.54915 19.3040912,65.15027 32.09375,96.62304 6.506378,-2.10537 15.715117,3.26552 20.324218,-3.55469 6.470432,-19.81093 12.264945,-39.83969 17.53125,-60.00195 5.532911,21.44519 12.327824,42.53463 19.300782,63.54688 6.603147,-1.98108 15.414124,2.98474 20.472656,-3.19922 12.34925,-30.42496 21.72076,-61.93726 30.95117,-93.41406 -8.44075,-10e-6 -16.88151,0 -25.32226,0 C 94.917212,676.49691 89.275441,700.2248 82.398438,723.62891 75.484501,700.25418 69.700342,676.51831 64.197266,652.74414 59.76188,653.03485 55.340088,652.37997 50.90625,652.5 Z"
       id="path5008"
       inkscape:connector-curvature="0"
       inkscape:export-xdpi="78.029999"
       inkscape:export-ydpi="78.029999" />
  </g>
</svg>
